solid Dodecahedron_Thick_Scaled
facet normal -0.4331542106792788 0.7557613140761722 -0.49112347318843164
  outer loop
    vertex -144.52010164947467 -17.51230841222521 78.24187504775303
    vertex -104.856004081559 -45.394654694181675 0.3529700610472456
    vertex -105.49967420411532 -45.862308412225275 0.2010201570383169
  endloop
endfacet
facet normal -0.4331542106792788 0.7557613140761722 -0.49112347318843164
  outer loop
    vertex -104.856004081559 -45.394654694181675 0.3529700610472456
    vertex -144.52010164947467 -17.51230841222521 78.24187504775303
    vertex -143.87643152691837 -17.044654694181617 78.39382495176196
  endloop
endfacet
facet normal -0.7946544722917638 -0.5773502691896234 -0.18759247408509713
  outer loop
    vertex -143.87643152691837 -17.044654694181617 78.39382495176196
    vertex -104.856004081559 -45.394654694181675 0.3529700610472456
    vertex -89.95152705298194 -91.2659182752429 78.39382495176199
  endloop
endfacet
facet normal -0.1517654995516858 -0.11026408970827763 0.9822469463768427
  outer loop
    vertex -90.59519717553826 -91.73357199328649 78.24187504775306
    vertex -143.87643152691837 -17.044654694181617 78.39382495176196
    vertex -144.52010164947467 -17.51230841222521 78.24187504775303
  endloop
endfacet
facet normal -0.1517654995516858 -0.11026408970827763 0.9822469463768427
  outer loop
    vertex -143.87643152691837 -17.044654694181617 78.39382495176196
    vertex -90.59519717553826 -91.73357199328649 78.24187504775306
    vertex -89.95152705298194 -91.2659182752429 78.39382495176199
  endloop
endfacet
facet normal 0.5849197102309674 -0.6454972243678911 -0.4911234731884333
  outer loop
    vertex -104.856004081559 -45.394654694181675 0.3529700610472456
    vertex -90.59519717553826 -91.73357199328649 78.24187504775306
    vertex -105.49967420411532 -45.862308412225275 0.2010201570383169
  endloop
endfacet
facet normal 0.5849197102309674 -0.6454972243678911 -0.4911234731884333
  outer loop
    vertex -90.59519717553826 -91.73357199328649 78.24187504775306
    vertex -104.856004081559 -45.394654694181675 0.3529700610472456
    vertex -89.95152705298194 -91.2659182752429 78.39382495176199
  endloop
endfacet
facet normal -0.7946544722917638 -0.5773502691896234 -0.18759247408509713
  outer loop
    vertex -144.52010164947467 -17.51230841222521 78.24187504775303
    vertex -105.49967420411532 -45.862308412225275 0.2010201570383169
    vertex -90.59519717553826 -91.73357199328649 78.24187504775306
  endloop
endfacet
facet normal 0.9472135954999591 -0.16245984811643252 -0.27639320225002917
  outer loop
    vertex -51.57476973017982 -63.38357199328481 0.20102015703828954
    vertex -42.13941784815363 -91.04454483852028 48.79516400295345
    vertex -42.363296341976145 -91.73357199328541 48.43292099059846
  endloop
endfacet
facet normal 0.9472135954999591 -0.16245984811643252 -0.27639320225002917
  outer loop
    vertex -42.13941784815363 -91.04454483852028 48.79516400295345
    vertex -51.57476973017982 -63.38357199328481 0.20102015703828954
    vertex -51.350891236357306 -62.694544838519676 0.5632631693932708
  endloop
endfacet
facet normal 0.1381966011250152 0.4253254041760384 -0.8944271909999065
  outer loop
    vertex -105.27579571029291 -45.173281257460125 0.5632631693932982
    vertex -51.57476973017982 -63.38357199328481 0.20102015703828954
    vertex -105.49967420411542 -45.86230841222527 0.20102015703831694
  endloop
endfacet
facet normal 0.1381966011250152 0.4253254041760384 -0.8944271909999065
  outer loop
    vertex -51.57476973017982 -63.38357199328481 0.20102015703828954
    vertex -105.27579571029291 -45.173281257460125 0.5632631693932982
    vertex -51.350891236357306 -62.694544838519676 0.5632631693932708
  endloop
endfacet
facet normal -0.9472135954999615 0.16245984811644015 0.27639320225001607
  outer loop
    vertex -90.37131868171582 -91.04454483852135 78.60411806010805
    vertex -105.49967420411542 -45.86230841222527 0.20102015703831694
    vertex -90.59519717553833 -91.73357199328649 78.24187504775307
  endloop
endfacet
facet normal -0.9472135954999615 0.16245984811644015 0.27639320225001607
  outer loop
    vertex -105.49967420411542 -45.86230841222527 0.20102015703831694
    vertex -90.37131868171582 -91.04454483852135 78.60411806010805
    vertex -105.27579571029291 -45.173281257460125 0.5632631693932982
  endloop
endfacet
facet normal 0.4472135954999498 -0.5257311121191441 0.7236067977499764
  outer loop
    vertex -42.363296341976145 -91.73357199328541 48.43292099059846
    vertex -90.37131868171582 -91.04454483852135 78.60411806010805
    vertex -90.59519717553833 -91.73357199328649 78.24187504775307
  endloop
endfacet
facet normal 0.4472135954999498 -0.5257311121191441 0.7236067977499764
  outer loop
    vertex -90.37131868171582 -91.04454483852135 78.60411806010805
    vertex -42.363296341976145 -91.73357199328541 48.43292099059846
    vertex -42.13941784815363 -91.04454483852028 48.79516400295345
  endloop
endfacet
facet normal -0.2763932022500104 -0.8506508083520334 -0.4472135954999769
  outer loop
    vertex -42.363296341976145 -91.73357199328541 48.43292099059846
    vertex -105.49967420411542 -45.86230841222527 0.20102015703831694
    vertex -51.57476973017982 -63.38357199328481 0.20102015703828954
  endloop
endfacet
facet normal -0.2763932022500104 -0.8506508083520334 -0.4472135954999769
  outer loop
    vertex -105.49967420411542 -45.86230841222527 0.20102015703831694
    vertex -42.363296341976145 -91.73357199328541 48.43292099059846
    vertex -90.59519717553833 -91.73357199328649 78.24187504775307
  endloop
endfacet
facet normal 0.2763932022500104 0.8506508083520334 0.4472135954999769
  outer loop
    vertex -105.27579571029291 -45.173281257460125 0.5632631693932982
    vertex -42.13941784815363 -91.04454483852028 48.79516400295345
    vertex -51.350891236357306 -62.694544838519676 0.5632631693932708
  endloop
endfacet
facet normal 0.2763932022500104 0.8506508083520334 0.4472135954999769
  outer loop
    vertex -42.13941784815363 -91.04454483852028 48.79516400295345
    vertex -105.27579571029291 -45.173281257460125 0.5632631693932982
    vertex -90.37131868171582 -91.04454483852135 78.60411806010805
  endloop
endfacet
facet normal -0.8944271909999071 9.047760231460143e-15 -0.4472135954999758
  outer loop
    vertex -144.5201016494748 -17.51230841222516 78.24187504775303
    vertex -105.49967420411532 10.837691587775003 0.20102015703835344
    vertex -105.49967420411546 -45.86230841222522 0.2010201570383169
  endloop
endfacet
facet normal -0.8944271909999071 9.047760231460143e-15 -0.4472135954999758
  outer loop
    vertex -105.49967420411532 10.837691587775003 0.20102015703835344
    vertex -144.5201016494748 -17.51230841222516 78.24187504775303
    vertex -129.61562462089591 28.358955168835475 48.43292099059851
  endloop
endfacet
facet normal 0.13819660112503132 0.9510565162951481 -0.2763932022500296
  outer loop
    vertex -129.61562462089591 28.358955168835475 48.43292099059851
    vertex -104.77518817940539 10.837691587775003 0.5632631693933339
    vertex -105.49967420411532 10.837691587775003 0.20102015703835344
  endloop
endfacet
facet normal 0.13819660112503132 0.9510565162951481 -0.2763932022500296
  outer loop
    vertex -104.77518817940539 10.837691587775003 0.5632631693933339
    vertex -129.61562462089591 28.358955168835475 48.43292099059851
    vertex -128.89113859618598 28.358955168835475 48.79516400295349
  endloop
endfacet
facet normal -0.8944271909999071 9.047760231460143e-15 -0.4472135954999758
  outer loop
    vertex -143.79561562476488 -17.51230841222516 78.60411806010801
    vertex -104.77518817940539 10.837691587775003 0.5632631693933339
    vertex -104.77518817940556 -45.86230841222522 0.5632631693932973
  endloop
endfacet
facet normal -0.8944271909999071 9.047760231460143e-15 -0.4472135954999758
  outer loop
    vertex -104.77518817940539 10.837691587775003 0.5632631693933339
    vertex -143.79561562476488 -17.51230841222516 78.60411806010801
    vertex -128.89113859618598 28.358955168835475 48.79516400295349
  endloop
endfacet
facet normal -0.36180339887500096 0.5877852522924676 0.7236067977499776
  outer loop
    vertex -143.79561562476488 -17.51230841222516 78.60411806010801
    vertex -129.61562462089591 28.358955168835475 48.43292099059851
    vertex -144.5201016494748 -17.51230841222516 78.24187504775303
  endloop
endfacet
facet normal -0.36180339887500096 0.5877852522924676 0.7236067977499776
  outer loop
    vertex -129.61562462089591 28.358955168835475 48.43292099059851
    vertex -143.79561562476488 -17.51230841222516 78.60411806010801
    vertex -128.89113859618598 28.358955168835475 48.79516400295349
  endloop
endfacet
facet normal -0.13819660112502405 -0.9510565162951533 0.27639320225001507
  outer loop
    vertex -104.77518817940556 -45.86230841222522 0.5632631693932973
    vertex -144.5201016494748 -17.51230841222516 78.24187504775303
    vertex -105.49967420411546 -45.86230841222522 0.2010201570383169
  endloop
endfacet
facet normal -0.13819660112502405 -0.9510565162951533 0.27639320225001507
  outer loop
    vertex -144.5201016494748 -17.51230841222516 78.24187504775303
    vertex -104.77518817940556 -45.86230841222522 0.5632631693932973
    vertex -143.79561562476488 -17.51230841222516 78.60411806010801
  endloop
endfacet
facet normal 0.4472135954999758 -5.765153599313017e-16 -0.8944271909999069
  outer loop
    vertex -105.49967420411532 10.837691587775003 0.20102015703835344
    vertex -104.77518817940556 -45.86230841222522 0.5632631693932973
    vertex -105.49967420411546 -45.86230841222522 0.2010201570383169
  endloop
endfacet
facet normal 0.4472135954999758 -5.765153599313017e-16 -0.8944271909999069
  outer loop
    vertex -104.77518817940556 -45.86230841222522 0.5632631693932973
    vertex -105.49967420411532 10.837691587775003 0.20102015703835344
    vertex -104.77518817940539 10.837691587775003 0.5632631693933339
  endloop
endfacet
facet normal -0.30901699437494573 -0.9510565162951542 -5.706581679051484e-16
  outer loop
    vertex -51.57476973017986 -63.38357199328474 1.0110201570382904
    vertex -105.49967420411546 -45.8623084122252 0.20102015703831694
    vertex -51.57476973017986 -63.38357199328474 0.20102015703828954
  endloop
endfacet
facet normal -0.30901699437494573 -0.9510565162951542 -5.706581679051484e-16
  outer loop
    vertex -105.49967420411546 -45.8623084122252 0.20102015703831694
    vertex -51.57476973017986 -63.38357199328474 1.0110201570382904
    vertex -105.49967420411546 -45.8623084122252 1.0110201570383177
  endloop
endfacet
facet normal 1.0 2.9877173714572876e-15 -2.5415041971575445e-16
  outer loop
    vertex -51.57476973018013 28.3589551688345 0.20102015703835352
    vertex -51.57476973017986 -63.38357199328474 1.0110201570382904
    vertex -51.57476973017986 -63.38357199328474 0.20102015703828954
  endloop
endfacet
facet normal 1.0 2.9877173714572876e-15 -2.5415041971575445e-16
  outer loop
    vertex -51.57476973017986 -63.38357199328474 1.0110201570382904
    vertex -51.57476973018013 28.3589551688345 0.20102015703835352
    vertex -51.57476973018013 28.3589551688345 1.0110201570383546
  endloop
endfacet
facet normal -1.0 2.0948322441784295e-15 2.541504197157579e-16
  outer loop
    vertex -105.49967420411535 10.837691587775032 1.0110201570383546
    vertex -105.49967420411546 -45.8623084122252 0.20102015703831694
    vertex -105.49967420411546 -45.8623084122252 1.0110201570383177
  endloop
endfacet
facet normal -1.0 2.0948322441784295e-15 2.541504197157579e-16
  outer loop
    vertex -105.49967420411546 -45.8623084122252 0.20102015703831694
    vertex -105.49967420411535 10.837691587775032 1.0110201570383546
    vertex -105.49967420411535 10.837691587775032 0.20102015703835352
  endloop
endfacet
facet normal -0.30901699437494656 0.9510565162951539 7.277317655445366e-16
  outer loop
    vertex -105.49967420411535 10.837691587775032 1.0110201570383546
    vertex -51.57476973018013 28.3589551688345 0.20102015703835352
    vertex -105.49967420411535 10.837691587775032 0.20102015703835352
  endloop
endfacet
facet normal -0.30901699437494656 0.9510565162951539 7.277317655445366e-16
  outer loop
    vertex -51.57476973018013 28.3589551688345 0.20102015703835352
    vertex -105.49967420411535 10.837691587775032 1.0110201570383546
    vertex -51.57476973018013 28.3589551688345 1.0110201570383546
  endloop
endfacet
facet normal -2.541504197157565e-16 6.826039836767902e-16 -1.0
  outer loop
    vertex -105.49967420411535 10.837691587775032 0.20102015703835352
    vertex -103.06967420411533 9.072193244722005 0.20102015703835122
    vertex -103.06967420411547 -44.09681006917218 0.20102015703831694
  endloop
endfacet
facet normal -2.541504197157565e-16 6.826039836767902e-16 -1.0
  outer loop
    vertex -103.06967420411533 9.072193244722005 0.20102015703835122
    vertex -105.49967420411535 10.837691587775032 0.20102015703835352
    vertex -51.57476973018013 28.3589551688345 0.20102015703835352
  endloop
endfacet
facet normal -2.541504197157565e-16 6.826039836767902e-16 -1.0
  outer loop
    vertex -103.06967420411533 9.072193244722005 0.20102015703835122
    vertex -51.57476973018013 28.3589551688345 0.20102015703835352
    vertex -54.00476973018013 25.014347102089573 0.20102015703835122
  endloop
endfacet
facet normal -2.541504197157565e-16 6.826039836767902e-16 -1.0
  outer loop
    vertex -54.00476973018013 25.014347102089573 0.20102015703835122
    vertex -51.57476973018013 28.3589551688345 0.20102015703835352
    vertex -54.00476973017986 -60.03896392653982 0.20102015703829412
  endloop
endfacet
facet normal -2.541504197157565e-16 6.826039836767902e-16 -1.0
  outer loop
    vertex -105.49967420411546 -45.8623084122252 0.20102015703831694
    vertex -103.06967420411547 -44.09681006917218 0.20102015703831694
    vertex -51.57476973017986 -63.38357199328474 0.20102015703828954
  endloop
endfacet
facet normal -2.541504197157565e-16 6.826039836767902e-16 -1.0
  outer loop
    vertex -103.06967420411547 -44.09681006917218 0.20102015703831694
    vertex -105.49967420411546 -45.8623084122252 0.20102015703831694
    vertex -105.49967420411535 10.837691587775032 0.20102015703835352
  endloop
endfacet
facet normal -2.541504197157565e-16 6.826039836767902e-16 -1.0
  outer loop
    vertex -51.57476973017986 -63.38357199328474 0.20102015703828954
    vertex -103.06967420411547 -44.09681006917218 0.20102015703831694
    vertex -54.00476973017986 -60.03896392653982 0.20102015703829412
  endloop
endfacet
facet normal -2.541504197157565e-16 6.826039836767902e-16 -1.0
  outer loop
    vertex -51.57476973017986 -63.38357199328474 0.20102015703828954
    vertex -54.00476973017986 -60.03896392653982 0.20102015703829412
    vertex -51.57476973018013 28.3589551688345 0.20102015703835352
  endloop
endfacet
facet normal 2.541504197157565e-16 -6.826039836767902e-16 1.0
  outer loop
    vertex -105.49967420411546 -45.8623084122252 1.0110201570383177
    vertex -103.06967420411547 -44.09681006917218 1.0110201570383177
    vertex -105.49967420411535 10.837691587775032 1.0110201570383546
  endloop
endfacet
facet normal 2.541504197157565e-16 -6.826039836767902e-16 1.0
  outer loop
    vertex -103.06967420411547 -44.09681006917218 1.0110201570383177
    vertex -105.49967420411546 -45.8623084122252 1.0110201570383177
    vertex -51.57476973017986 -63.38357199328474 1.0110201570382904
  endloop
endfacet
facet normal 2.541504197157565e-16 -6.826039836767902e-16 1.0
  outer loop
    vertex -103.06967420411547 -44.09681006917218 1.0110201570383177
    vertex -51.57476973017986 -63.38357199328474 1.0110201570382904
    vertex -54.00476973017986 -60.03896392653982 1.011020157038295
  endloop
endfacet
facet normal 2.541504197157565e-16 -6.826039836767902e-16 1.0
  outer loop
    vertex -54.00476973017986 -60.03896392653982 1.011020157038295
    vertex -51.57476973017986 -63.38357199328474 1.0110201570382904
    vertex -51.57476973018013 28.3589551688345 1.0110201570383546
  endloop
endfacet
facet normal 2.541504197157565e-16 -6.826039836767902e-16 1.0
  outer loop
    vertex -105.49967420411535 10.837691587775032 1.0110201570383546
    vertex -103.06967420411533 9.072193244722005 1.0110201570383521
    vertex -51.57476973018013 28.3589551688345 1.0110201570383546
  endloop
endfacet
facet normal 2.541504197157565e-16 -6.826039836767902e-16 1.0
  outer loop
    vertex -103.06967420411533 9.072193244722005 1.0110201570383521
    vertex -105.49967420411535 10.837691587775032 1.0110201570383546
    vertex -103.06967420411547 -44.09681006917218 1.0110201570383177
  endloop
endfacet
facet normal 2.541504197157565e-16 -6.826039836767902e-16 1.0
  outer loop
    vertex -51.57476973018013 28.3589551688345 1.0110201570383546
    vertex -103.06967420411533 9.072193244722005 1.0110201570383521
    vertex -54.00476973018013 25.014347102089573 1.0110201570383521
  endloop
endfacet
facet normal 2.541504197157565e-16 -6.826039836767902e-16 1.0
  outer loop
    vertex -51.57476973018013 28.3589551688345 1.0110201570383546
    vertex -54.00476973018013 25.014347102089573 1.0110201570383521
    vertex -54.00476973017986 -60.03896392653982 1.011020157038295
  endloop
endfacet
facet normal 0.30901699437494695 -0.9510565162951539 -7.032528982271378e-16
  outer loop
    vertex -54.00476973018013 25.014347102089573 1.0110201570383521
    vertex -103.06967420411533 9.072193244722005 0.20102015703835122
    vertex -54.00476973018013 25.014347102089573 0.20102015703835122
  endloop
endfacet
facet normal 0.30901699437494695 -0.9510565162951539 -7.032528982271378e-16
  outer loop
    vertex -103.06967420411533 9.072193244722005 0.20102015703835122
    vertex -54.00476973018013 25.014347102089573 1.0110201570383521
    vertex -103.06967420411533 9.072193244722005 1.0110201570383521
  endloop
endfacet
facet normal -1.0 -3.0615587077006596e-15 2.327705388764372e-16
  outer loop
    vertex -54.00476973018013 25.014347102089573 1.0110201570383521
    vertex -54.00476973017986 -60.03896392653982 0.20102015703829412
    vertex -54.00476973017986 -60.03896392653982 1.011020157038295
  endloop
endfacet
facet normal -1.0 -3.0615587077006596e-15 2.327705388764372e-16
  outer loop
    vertex -54.00476973017986 -60.03896392653982 0.20102015703829412
    vertex -54.00476973018013 25.014347102089573 1.0110201570383521
    vertex -54.00476973018013 25.014347102089573 0.20102015703835122
  endloop
endfacet
facet normal 0.30901699437494606 0.9510565162951541 5.593927936218702e-16
  outer loop
    vertex -103.06967420411547 -44.09681006917218 0.20102015703831694
    vertex -54.00476973017986 -60.03896392653982 1.011020157038295
    vertex -54.00476973017986 -60.03896392653982 0.20102015703829412
  endloop
endfacet
facet normal 0.30901699437494606 0.9510565162951541 5.593927936218702e-16
  outer loop
    vertex -54.00476973017986 -60.03896392653982 1.011020157038295
    vertex -103.06967420411547 -44.09681006917218 0.20102015703831694
    vertex -103.06967420411547 -44.09681006917218 1.0110201570383177
  endloop
endfacet
facet normal 1.0 -2.233951754628406e-15 -2.3277053887644073e-16
  outer loop
    vertex -103.06967420411533 9.072193244722005 0.20102015703835122
    vertex -103.06967420411547 -44.09681006917218 1.0110201570383177
    vertex -103.06967420411547 -44.09681006917218 0.20102015703831694
  endloop
endfacet
facet normal 1.0 -2.233951754628406e-15 -2.3277053887644073e-16
  outer loop
    vertex -103.06967420411547 -44.09681006917218 1.0110201570383177
    vertex -103.06967420411533 9.072193244722005 0.20102015703835122
    vertex -103.06967420411533 9.072193244722005 1.0110201570383521
  endloop
endfacet
facet normal 0.27639320225001585 -0.8506508083520311 0.4472135954999781
  outer loop
    vertex -3.342868896617996 -63.38357199328589 78.24187504775304
    vertex -50.040539829117726 -91.73357199328578 53.17771840556061
    vertex -42.363296341976216 -91.73357199328544 48.43292099059848
  endloop
endfacet
facet normal 0.27639320225001585 -0.8506508083520311 0.4472135954999781
  outer loop
    vertex -50.040539829117726 -91.73357199328578 53.17771840556061
    vertex -3.342868896617996 -63.38357199328589 78.24187504775304
    vertex -47.96627614473369 -85.97026978719197 62.85820518394867
  endloop
endfacet
facet normal 0.27639320225001585 -0.8506508083520311 0.4472135954999781
  outer loop
    vertex -47.96627614473369 -85.97026978719197 62.85820518394867
    vertex -3.342868896617996 -63.38357199328589 78.24187504775304
    vertex -33.65544108873464 -69.14687419937884 86.01362271194859
  endloop
endfacet
facet normal 0.27639320225001585 -0.8506508083520311 0.4472135954999781
  outer loop
    vertex -33.65544108873464 -69.14687419937884 86.01362271194859
    vertex -3.342868896617996 -63.38357199328589 78.24187504775304
    vertex -81.38372378733598 -63.383571993284335 126.4737758813132
  endloop
endfacet
facet normal 0.27639320225001585 -0.8506508083520311 0.4472135954999781
  outer loop
    vertex -33.65544108873464 -69.14687419937884 86.01362271194859
    vertex -81.38372378733598 -63.383571993284335 126.4737758813132
    vertex -60.87626695600072 -69.14687419937884 102.83701829975963
  endloop
endfacet
facet normal 0.27639320225001585 -0.8506508083520311 0.4472135954999781
  outer loop
    vertex -47.96627614473369 -85.97026978719197 62.85820518394867
    vertex -66.47924675875711 -91.73357199328615 63.33739801917577
    vertex -50.040539829117726 -91.73357199328578 53.17771840556061
  endloop
endfacet
facet normal 0.27639320225001585 -0.8506508083520311 0.4472135954999781
  outer loop
    vertex -66.47924675875711 -91.73357199328615 63.33739801917577
    vertex -47.96627614473369 -85.97026978719197 62.85820518394867
    vertex -75.18710201199922 -85.97026978719164 79.68160077176059
  endloop
endfacet
facet normal 0.27639320225001585 -0.8506508083520311 0.4472135954999781
  outer loop
    vertex -66.47924675875711 -91.73357199328615 63.33739801917577
    vertex -75.18710201199922 -85.97026978719164 79.68160077176059
    vertex -90.59519717553849 -91.73357199328652 78.24187504775308
  endloop
endfacet
facet normal 0.27639320225001585 -0.8506508083520311 0.4472135954999781
  outer loop
    vertex -90.59519717553849 -91.73357199328652 78.24187504775308
    vertex -75.18710201199922 -85.97026978719164 79.68160077176059
    vertex -81.38372378733598 -63.383571993284335 126.4737758813132
  endloop
endfacet
facet normal 0.27639320225001585 -0.8506508083520311 0.4472135954999781
  outer loop
    vertex -81.38372378733598 -63.383571993284335 126.4737758813132
    vertex -75.18710201199922 -85.97026978719164 79.68160077176059
    vertex -60.87626695600072 -69.14687419937884 102.83701829975963
  endloop
endfacet
facet normal -0.27639320225001585 0.8506508083520311 -0.4472135954999781
  outer loop
    vertex -66.75563996100712 -90.88292118493413 62.8901844236758
    vertex -48.24266934698371 -85.11961897883992 62.41099158844869
    vertex -50.316933031367746 -90.88292118493375 52.73050481006062
  endloop
endfacet
facet normal -0.27639320225001585 0.8506508083520311 -0.4472135954999781
  outer loop
    vertex -48.24266934698371 -85.11961897883992 62.41099158844869
    vertex -66.75563996100712 -90.88292118493413 62.8901844236758
    vertex -75.46349521424922 -85.11961897883961 79.23438717626061
  endloop
endfacet
facet normal -0.27639320225001585 0.8506508083520311 -0.4472135954999781
  outer loop
    vertex -75.46349521424922 -85.11961897883961 79.23438717626061
    vertex -66.75563996100712 -90.88292118493413 62.8901844236758
    vertex -90.8715903777885 -90.88292118493447 77.79466145225311
  endloop
endfacet
facet normal -0.27639320225001585 0.8506508083520311 -0.4472135954999781
  outer loop
    vertex -75.46349521424922 -85.11961897883961 79.23438717626061
    vertex -90.8715903777885 -90.88292118493447 77.79466145225311
    vertex -81.66011698958599 -62.5329211849323 126.0265622858132
  endloop
endfacet
facet normal -0.27639320225001585 0.8506508083520311 -0.4472135954999781
  outer loop
    vertex -75.46349521424922 -85.11961897883961 79.23438717626061
    vertex -81.66011698958599 -62.5329211849323 126.0265622858132
    vertex -61.15266015825072 -68.29622339102683 102.38980470425965
  endloop
endfacet
facet normal -0.27639320225001585 0.8506508083520311 -0.4472135954999781
  outer loop
    vertex -50.316933031367746 -90.88292118493375 52.73050481006062
    vertex -3.619262098867996 -62.532921184933855 77.79466145225307
    vertex -42.639689544226236 -90.8829211849334 47.9857073950985
  endloop
endfacet
facet normal -0.27639320225001585 0.8506508083520311 -0.4472135954999781
  outer loop
    vertex -3.619262098867996 -62.532921184933855 77.79466145225307
    vertex -50.316933031367746 -90.88292118493375 52.73050481006062
    vertex -48.24266934698371 -85.11961897883992 62.41099158844869
  endloop
endfacet
facet normal -0.27639320225001585 0.8506508083520311 -0.4472135954999781
  outer loop
    vertex -3.619262098867996 -62.532921184933855 77.79466145225307
    vertex -48.24266934698371 -85.11961897883992 62.41099158844869
    vertex -33.93183429098466 -68.29622339102683 85.56640911644861
  endloop
endfacet
facet normal -0.27639320225001585 0.8506508083520311 -0.4472135954999781
  outer loop
    vertex -3.619262098867996 -62.532921184933855 77.79466145225307
    vertex -33.93183429098466 -68.29622339102683 85.56640911644861
    vertex -81.66011698958599 -62.5329211849323 126.0265622858132
  endloop
endfacet
facet normal -0.27639320225001585 0.8506508083520311 -0.4472135954999781
  outer loop
    vertex -81.66011698958599 -62.5329211849323 126.0265622858132
    vertex -33.93183429098466 -68.29622339102683 85.56640911644861
    vertex -61.15266015825072 -68.29622339102683 102.38980470425965
  endloop
endfacet
facet normal -0.4472135954999317 -0.5257311121191479 -0.7236067977499846
  outer loop
    vertex -50.316933031367746 -90.88292118493375 52.73050481006062
    vertex -66.47924675875711 -91.73357199328615 63.33739801917577
    vertex -66.75563996100712 -90.88292118493413 62.8901844236758
  endloop
endfacet
facet normal -0.4472135954999317 -0.5257311121191479 -0.7236067977499846
  outer loop
    vertex -66.47924675875711 -91.73357199328615 63.33739801917577
    vertex -50.316933031367746 -90.88292118493375 52.73050481006062
    vertex -50.040539829117726 -91.73357199328578 53.17771840556061
  endloop
endfacet
facet normal -0.44721359549992995 -0.525731112119148 -0.7236067977499859
  outer loop
    vertex -42.639689544226236 -90.8829211849334 47.9857073950985
    vertex -50.040539829117726 -91.73357199328578 53.17771840556061
    vertex -50.316933031367746 -90.88292118493375 52.73050481006062
  endloop
endfacet
facet normal -0.44721359549992995 -0.525731112119148 -0.7236067977499859
  outer loop
    vertex -50.040539829117726 -91.73357199328578 53.17771840556061
    vertex -42.639689544226236 -90.8829211849334 47.9857073950985
    vertex -42.363296341976216 -91.73357199328544 48.43292099059848
  endloop
endfacet
facet normal 0.6708203932499349 -0.16245984811647513 -0.7236067977499758
  outer loop
    vertex -3.619262098867996 -62.532921184933855 77.79466145225307
    vertex -42.363296341976216 -91.73357199328544 48.43292099059848
    vertex -42.639689544226236 -90.8829211849334 47.9857073950985
  endloop
endfacet
facet normal 0.6708203932499349 -0.16245984811647513 -0.7236067977499758
  outer loop
    vertex -42.363296341976216 -91.73357199328544 48.43292099059848
    vertex -3.619262098867996 -62.532921184933855 77.79466145225307
    vertex -3.342868896617996 -63.38357199328589 78.24187504775304
  endloop
endfacet
facet normal 0.44721359549994727 0.5257311121191479 0.7236067977499752
  outer loop
    vertex -81.38372378733598 -63.383571993284335 126.4737758813132
    vertex -3.619262098867996 -62.532921184933855 77.79466145225307
    vertex -81.66011698958599 -62.5329211849323 126.0265622858132
  endloop
endfacet
facet normal 0.44721359549994727 0.5257311121191479 0.7236067977499752
  outer loop
    vertex -3.619262098867996 -62.532921184933855 77.79466145225307
    vertex -81.38372378733598 -63.383571993284335 126.4737758813132
    vertex -3.342868896617996 -63.38357199328589 78.24187504775304
  endloop
endfacet
facet normal -0.9472135954999601 -0.1624598481164443 0.27639320225001895
  outer loop
    vertex -81.38372378733598 -63.383571993284335 126.4737758813132
    vertex -90.8715903777885 -90.88292118493447 77.79466145225311
    vertex -90.59519717553849 -91.73357199328652 78.24187504775308
  endloop
endfacet
facet normal -0.9472135954999601 -0.1624598481164443 0.27639320225001895
  outer loop
    vertex -90.8715903777885 -90.88292118493447 77.79466145225311
    vertex -81.38372378733598 -63.383571993284335 126.4737758813132
    vertex -81.66011698958599 -62.5329211849323 126.0265622858132
  endloop
endfacet
facet normal -0.44721359549993095 -0.525731112119148 -0.7236067977499852
  outer loop
    vertex -66.75563996100712 -90.88292118493413 62.8901844236758
    vertex -90.59519717553849 -91.73357199328652 78.24187504775308
    vertex -90.8715903777885 -90.88292118493447 77.79466145225311
  endloop
endfacet
facet normal -0.44721359549993095 -0.525731112119148 -0.7236067977499852
  outer loop
    vertex -90.59519717553849 -91.73357199328652 78.24187504775308
    vertex -66.75563996100712 -90.88292118493413 62.8901844236758
    vertex -66.47924675875711 -91.73357199328615 63.33739801917577
  endloop
endfacet
facet normal -0.44721359549992024 -0.525731112119148 -0.7236067977499919
  outer loop
    vertex -33.93183429098466 -68.29622339102683 85.56640911644861
    vertex -60.87626695600072 -69.14687419937884 102.83701829975963
    vertex -61.15266015825072 -68.29622339102683 102.38980470425965
  endloop
endfacet
facet normal -0.44721359549992024 -0.525731112119148 -0.7236067977499919
  outer loop
    vertex -60.87626695600072 -69.14687419937884 102.83701829975963
    vertex -33.93183429098466 -68.29622339102683 85.56640911644861
    vertex -33.65544108873464 -69.14687419937884 86.01362271194859
  endloop
endfacet
facet normal -0.8506508083520438 1.3174530910653026e-14 0.5257311121191274
  outer loop
    vertex -33.65544108873464 -69.14687419937884 86.01362271194859
    vertex -48.24266934698371 -85.11961897883992 62.41099158844869
    vertex -47.96627614473369 -85.97026978719197 62.85820518394867
  endloop
endfacet
facet normal -0.8506508083520438 1.3174530910653026e-14 0.5257311121191274
  outer loop
    vertex -48.24266934698371 -85.11961897883992 62.41099158844869
    vertex -33.65544108873464 -69.14687419937884 86.01362271194859
    vertex -33.93183429098466 -68.29622339102683 85.56640911644861
  endloop
endfacet
facet normal 0.4472135954999482 0.525731112119148 0.7236067977499745
  outer loop
    vertex -75.18710201199922 -85.97026978719164 79.68160077176059
    vertex -48.24266934698371 -85.11961897883992 62.41099158844869
    vertex -75.46349521424922 -85.11961897883961 79.23438717626061
  endloop
endfacet
facet normal 0.4472135954999482 0.525731112119148 0.7236067977499745
  outer loop
    vertex -48.24266934698371 -85.11961897883992 62.41099158844869
    vertex -75.18710201199922 -85.97026978719164 79.68160077176059
    vertex -47.96627614473369 -85.97026978719197 62.85820518394867
  endloop
endfacet
facet normal 0.8506508083520438 -1.3042344981784026e-14 -0.5257311121191273
  outer loop
    vertex -75.46349521424922 -85.11961897883961 79.23438717626061
    vertex -60.87626695600072 -69.14687419937884 102.83701829975963
    vertex -75.18710201199922 -85.97026978719164 79.68160077176059
  endloop
endfacet
facet normal 0.8506508083520438 -1.3042344981784026e-14 -0.5257311121191273
  outer loop
    vertex -60.87626695600072 -69.14687419937884 102.83701829975963
    vertex -75.46349521424922 -85.11961897883961 79.23438717626061
    vertex -61.15266015825072 -68.29622339102683 102.38980470425965
  endloop
endfacet
facet normal -0.44721359549995054 0.8506508083520443 0.27639320225001934
  outer loop
    vertex -144.52010164947473 -17.512308412225188 78.24187504775306
    vertex -114.1250260861413 -17.086466211408144 126.11153286895824
    vertex -143.93398014329725 -17.086466211408684 77.87963203539809
  endloop
endfacet
facet normal -0.44721359549995054 0.8506508083520443 0.27639320225001934
  outer loop
    vertex -114.1250260861413 -17.086466211408144 126.11153286895824
    vertex -144.52010164947473 -17.512308412225188 78.24187504775306
    vertex -114.71114759231881 -17.512308412224634 126.4737758813132
  endloop
endfacet
facet normal 0.3618033988750067 0.2628655560595765 0.8944271909999061
  outer loop
    vertex -81.38372378733581 -63.38357199328431 126.4737758813132
    vertex -114.1250260861413 -17.086466211408144 126.11153286895824
    vertex -114.71114759231881 -17.512308412224634 126.4737758813132
  endloop
endfacet
facet normal 0.3618033988750067 0.2628655560595765 0.8944271909999061
  outer loop
    vertex -114.1250260861413 -17.086466211408144 126.11153286895824
    vertex -81.38372378733581 -63.38357199328431 126.4737758813132
    vertex -80.79760228115833 -62.957729792467816 126.11153286895824
  endloop
endfacet
facet normal 0.7236067977499722 0.5257311121191265 -0.4472135954999776
  outer loop
    vertex -143.93398014329725 -17.086466211408684 77.87963203539809
    vertex -80.79760228115833 -62.957729792467816 126.11153286895824
    vertex -90.00907566936081 -91.30772979246998 77.87963203539812
  endloop
endfacet
facet normal 0.7236067977499722 0.5257311121191265 -0.4472135954999776
  outer loop
    vertex -80.79760228115833 -62.957729792467816 126.11153286895824
    vertex -143.93398014329725 -17.086466211408684 77.87963203539809
    vertex -114.1250260861413 -17.086466211408144 126.11153286895824
  endloop
endfacet
facet normal 0.6708203932499462 -0.6881909602355669 0.2763932022500478
  outer loop
    vertex -80.79760228115833 -62.957729792467816 126.11153286895824
    vertex -90.59519717553829 -91.73357199328649 78.2418750477531
    vertex -90.00907566936081 -91.30772979246998 77.87963203539812
  endloop
endfacet
facet normal 0.6708203932499462 -0.6881909602355669 0.2763932022500478
  outer loop
    vertex -90.59519717553829 -91.73357199328649 78.2418750477531
    vertex -80.79760228115833 -62.957729792467816 126.11153286895824
    vertex -81.38372378733581 -63.38357199328431 126.4737758813132
  endloop
endfacet
facet normal -0.7236067977499722 -0.5257311121191265 0.4472135954999776
  outer loop
    vertex -81.38372378733581 -63.38357199328431 126.4737758813132
    vertex -144.52010164947473 -17.512308412225188 78.24187504775306
    vertex -90.59519717553829 -91.73357199328649 78.2418750477531
  endloop
endfacet
facet normal -0.7236067977499722 -0.5257311121191265 0.4472135954999776
  outer loop
    vertex -144.52010164947473 -17.512308412225188 78.24187504775306
    vertex -81.38372378733581 -63.38357199328431 126.4737758813132
    vertex -114.71114759231881 -17.512308412224634 126.4737758813132
  endloop
endfacet
facet normal -0.36180339887500534 -0.26286555605957845 -0.8944271909999061
  outer loop
    vertex -143.93398014329725 -17.086466211408684 77.87963203539809
    vertex -90.59519717553829 -91.73357199328649 78.2418750477531
    vertex -144.52010164947473 -17.512308412225188 78.24187504775306
  endloop
endfacet
facet normal -0.36180339887500534 -0.26286555605957845 -0.8944271909999061
  outer loop
    vertex -90.59519717553829 -91.73357199328649 78.2418750477531
    vertex -143.93398014329725 -17.086466211408684 77.87963203539809
    vertex -90.00907566936081 -91.30772979246998 77.87963203539812
  endloop
endfacet
facet normal -0.44721359549995043 -0.8506508083520382 0.2763932022500389
  outer loop
    vertex -114.12502608614136 -17.938150613041053 126.1115328689582
    vertex -144.52010164947473 -17.51230841222512 78.24187504775303
    vertex -143.93398014329725 -17.93815061304162 77.87963203539805
  endloop
endfacet
facet normal -0.44721359549995043 -0.8506508083520382 0.2763932022500389
  outer loop
    vertex -144.52010164947473 -17.51230841222512 78.24187504775303
    vertex -114.12502608614136 -17.938150613041053 126.1115328689582
    vertex -114.71114759231881 -17.512308412224552 126.47377588131316
  endloop
endfacet
facet normal 0.7236067977499738 -0.5257311121191366 -0.4472135954999628
  outer loop
    vertex -129.02950311471835 27.933112968019 48.07067797824354
    vertex -114.12502608614136 -17.938150613041053 126.1115328689582
    vertex -143.93398014329725 -17.93815061304162 77.87963203539805
  endloop
endfacet
facet normal 0.7236067977499738 -0.5257311121191366 -0.4472135954999628
  outer loop
    vertex -114.12502608614136 -17.938150613041053 126.1115328689582
    vertex -129.02950311471835 27.933112968019 48.07067797824354
    vertex -80.79760228115776 27.93311296801875 126.11153286895828
  endloop
endfacet
facet normal -0.6381966011250091 -0.26286555605954165 -0.7236067977499893
  outer loop
    vertex -129.61562462089583 28.358955168835504 48.43292099059851
    vertex -143.93398014329725 -17.93815061304162 77.87963203539805
    vertex -144.52010164947473 -17.51230841222512 78.24187504775303
  endloop
endfacet
facet normal -0.6381966011250091 -0.26286555605954165 -0.7236067977499893
  outer loop
    vertex -143.93398014329725 -17.93815061304162 77.87963203539805
    vertex -129.61562462089583 28.358955168835504 48.43292099059851
    vertex -129.02950311471835 27.933112968019 48.07067797824354
  endloop
endfacet
facet normal 0.4472135954999607 0.8506508083520381 -0.27639320225002234
  outer loop
    vertex -129.61562462089583 28.358955168835504 48.43292099059851
    vertex -80.79760228115776 27.93311296801875 126.11153286895828
    vertex -129.02950311471835 27.933112968019 48.07067797824354
  endloop
endfacet
facet normal 0.4472135954999607 0.8506508083520381 -0.27639320225002234
  outer loop
    vertex -80.79760228115776 27.93311296801875 126.11153286895828
    vertex -129.61562462089583 28.358955168835504 48.43292099059851
    vertex -81.38372378733523 28.358955168835244 126.47377588131322
  endloop
endfacet
facet normal 0.36180339887499213 -0.2628655560595714 0.8944271909999135
  outer loop
    vertex -114.12502608614136 -17.938150613041053 126.1115328689582
    vertex -81.38372378733523 28.358955168835244 126.47377588131322
    vertex -114.71114759231881 -17.512308412224552 126.47377588131316
  endloop
endfacet
facet normal 0.36180339887499213 -0.2628655560595714 0.8944271909999135
  outer loop
    vertex -81.38372378733523 28.358955168835244 126.47377588131322
    vertex -114.12502608614136 -17.938150613041053 126.1115328689582
    vertex -80.79760228115776 27.93311296801875 126.11153286895828
  endloop
endfacet
facet normal -0.7236067977499738 0.5257311121191366 0.4472135954999628
  outer loop
    vertex -114.71114759231881 -17.512308412224552 126.47377588131316
    vertex -129.61562462089583 28.358955168835504 48.43292099059851
    vertex -144.52010164947473 -17.51230841222512 78.24187504775303
  endloop
endfacet
facet normal -0.7236067977499738 0.5257311121191366 0.4472135954999628
  outer loop
    vertex -129.61562462089583 28.358955168835504 48.43292099059851
    vertex -114.71114759231881 -17.512308412224552 126.47377588131316
    vertex -81.38372378733523 28.358955168835244 126.47377588131322
  endloop
endfacet
facet normal 0.7236067977499708 -0.5257311121191288 -0.4472135954999766
  outer loop
    vertex -52.16089123635735 -62.957729792468335 0.5632631693932789
    vertex -3.9289904027953964 -62.9577297924694 78.60411806010802
    vertex -42.949417848153686 -91.30772979246893 48.795164002953456
  endloop
endfacet
facet normal 0.7236067977499708 -0.5257311121191288 -0.4472135954999766
  outer loop
    vertex -3.9289904027953964 -62.9577297924694 78.60411806010802
    vertex -52.16089123635735 -62.957729792468335 0.5632631693932789
    vertex 10.975486625781564 -17.08646621140951 48.79516400295344
  endloop
endfacet
facet normal -0.052786404500030845 -0.6881909602355959 0.7236067977499712
  outer loop
    vertex -42.36329634197621 -91.73357199328544 48.432920990598475
    vertex -3.9289904027953964 -62.9577297924694 78.60411806010802
    vertex -42.949417848153686 -91.30772979246893 48.795164002953456
  endloop
endfacet
facet normal -0.052786404500030845 -0.6881909602355959 0.7236067977499712
  outer loop
    vertex -3.9289904027953964 -62.9577297924694 78.60411806010802
    vertex -42.36329634197621 -91.73357199328544 48.432920990598475
    vertex -3.342868896617917 -63.383571993285905 78.24187504775304
  endloop
endfacet
facet normal 0.6381966011250231 0.26286555605955747 0.7236067977499712
  outer loop
    vertex -3.342868896617917 -63.383571993285905 78.24187504775304
    vertex 10.975486625781564 -17.08646621140951 48.79516400295344
    vertex -3.9289904027953964 -62.9577297924694 78.60411806010802
  endloop
endfacet
facet normal 0.6381966011250231 0.26286555605955747 0.7236067977499712
  outer loop
    vertex 10.975486625781564 -17.08646621140951 48.79516400295344
    vertex -3.342868896617917 -63.383571993285905 78.24187504775304
    vertex 11.561608131959042 -17.512308412225998 48.432920990598454
  endloop
endfacet
facet normal 0.05278640450003075 0.6881909602355957 -0.7236067977499712
  outer loop
    vertex 10.975486625781564 -17.08646621140951 48.79516400295344
    vertex -51.574769730179874 -63.38357199328484 0.20102015703829865
    vertex -52.16089123635735 -62.957729792468335 0.5632631693932789
  endloop
endfacet
facet normal 0.05278640450003075 0.6881909602355957 -0.7236067977499712
  outer loop
    vertex -51.574769730179874 -63.38357199328484 0.20102015703829865
    vertex 10.975486625781564 -17.08646621140951 48.79516400295344
    vertex 11.561608131959042 -17.512308412225998 48.432920990598454
  endloop
endfacet
facet normal -0.6708203932499424 -0.6881909602355827 -0.2763932022500183
  outer loop
    vertex -42.36329634197621 -91.73357199328544 48.432920990598475
    vertex -52.16089123635735 -62.957729792468335 0.5632631693932789
    vertex -51.574769730179874 -63.38357199328484 0.20102015703829865
  endloop
endfacet
facet normal -0.6708203932499424 -0.6881909602355827 -0.2763932022500183
  outer loop
    vertex -52.16089123635735 -62.957729792468335 0.5632631693932789
    vertex -42.36329634197621 -91.73357199328544 48.432920990598475
    vertex -42.949417848153686 -91.30772979246893 48.795164002953456
  endloop
endfacet
facet normal 0.7236067977499708 -0.5257311121191288 -0.4472135954999766
  outer loop
    vertex -51.574769730179874 -63.38357199328484 0.20102015703829865
    vertex -3.342868896617917 -63.383571993285905 78.24187504775304
    vertex -42.36329634197621 -91.73357199328544 48.432920990598475
  endloop
endfacet
facet normal 0.7236067977499708 -0.5257311121191288 -0.4472135954999766
  outer loop
    vertex -3.342868896617917 -63.383571993285905 78.24187504775304
    vertex -51.574769730179874 -63.38357199328484 0.20102015703829865
    vertex 11.561608131959042 -17.512308412225998 48.432920990598454
  endloop
endfacet
facet normal 0.39732723614588233 -0.8660254037844429 0.30353099910333203
  outer loop
    vertex 11.561608131959021 -17.512308412225927 48.432920990598454
    vertex -52.06648994872731 -63.38357199328474 0.8446902795946372
    vertex -51.574769730179895 -63.38357199328474 0.20102015703829865
  endloop
endfacet
facet normal 0.39732723614588233 -0.8660254037844429 0.30353099910333203
  outer loop
    vertex -52.06648994872731 -63.38357199328474 0.8446902795946372
    vertex 11.561608131959021 -17.512308412225927 48.432920990598454
    vertex 11.069887913411597 -17.512308412225927 49.076591113154805
  endloop
endfacet
facet normal 0.39732723614588955 0.8660254037844358 0.30353099910334275
  outer loop
    vertex -52.06648994872758 28.3589551688345 0.8446902795947009
    vertex 11.561608131959021 -17.512308412225927 48.432920990598454
    vertex -51.574769730180165 28.3589551688345 0.20102015703836265
  endloop
endfacet
facet normal 0.39732723614588955 0.8660254037844358 0.30353099910334275
  outer loop
    vertex 11.561608131959021 -17.512308412225927 48.432920990598454
    vertex -52.06648994872758 28.3589551688345 0.8446902795947009
    vertex 11.069887913411597 -17.512308412225927 49.076591113154805
  endloop
endfacet
facet normal -0.7946544722917738 -1.931214354974066e-15 -0.6070619982066762
  outer loop
    vertex -52.06648994872758 28.3589551688345 0.8446902795947009
    vertex -51.574769730179895 -63.38357199328474 0.20102015703829865
    vertex -52.06648994872731 -63.38357199328474 0.8446902795946372
  endloop
endfacet
facet normal -0.7946544722917738 -1.931214354974066e-15 -0.6070619982066762
  outer loop
    vertex -51.574769730179895 -63.38357199328474 0.20102015703829865
    vertex -52.06648994872758 28.3589551688345 0.8446902795947009
    vertex -51.574769730180165 28.3589551688345 0.20102015703836265
  endloop
endfacet
facet normal 0.6070619982066762 2.3695247570944342e-15 -0.7946544722917738
  outer loop
    vertex 11.561608131959021 -17.512308412225927 48.432920990598454
    vertex -51.574769730179895 -63.38357199328474 0.20102015703829865
    vertex -51.574769730180165 28.3589551688345 0.20102015703836265
  endloop
endfacet
facet normal 0.6070619982066762 2.3695247570944342e-15 -0.7946544722917738
  outer loop
    vertex 11.069887913411597 -17.512308412225927 49.076591113154805
    vertex -52.06648994872731 -63.38357199328474 0.8446902795946372
    vertex -52.06648994872758 28.3589551688345 0.8446902795947009
  endloop
endfacet
facet normal -0.27639320225001757 0.8506508083520314 -0.4472135954999762
  outer loop
    vertex -129.6156246208959 28.358955168835415 48.43292099059852
    vertex -51.57476973018007 28.35895516883443 0.20102015703836265
    vertex -105.49967420411531 10.837691587774964 0.20102015703836265
  endloop
endfacet
facet normal -0.27639320225001757 0.8506508083520314 -0.4472135954999762
  outer loop
    vertex -51.57476973018007 28.35895516883443 0.20102015703836265
    vertex -129.6156246208959 28.358955168835415 48.43292099059852
    vertex -42.36329634197749 56.70895516883536 48.43292099059852
  endloop
endfacet
facet normal -0.8618033988749884 -0.42532540417602444 -0.2763932022500176
  outer loop
    vertex -129.39174612707336 27.669928014070283 48.795164002953506
    vertex -105.49967420411531 10.837691587774964 0.20102015703836265
    vertex -105.2757957102928 10.148664433009824 0.5632631693933429
  endloop
endfacet
facet normal -0.8618033988749884 -0.42532540417602444 -0.2763932022500176
  outer loop
    vertex -105.49967420411531 10.837691587774964 0.20102015703836265
    vertex -129.39174612707336 27.669928014070283 48.795164002953506
    vertex -129.6156246208959 28.358955168835415 48.43292099059852
  endloop
endfacet
facet normal -0.13819660112501597 0.42532540417603737 0.8944271909999068
  outer loop
    vertex -129.39174612707336 27.669928014070283 48.795164002953506
    vertex -42.36329634197749 56.70895516883536 48.43292099059852
    vertex -129.6156246208959 28.358955168835415 48.43292099059852
  endloop
endfacet
facet normal -0.13819660112501597 0.42532540417603737 0.8944271909999068
  outer loop
    vertex -42.36329634197749 56.70895516883536 48.43292099059852
    vertex -129.39174612707336 27.669928014070283 48.795164002953506
    vertex -42.13941784815496 56.01992801407023 48.795164002953506
  endloop
endfacet
facet normal 0.27639320225001757 -0.8506508083520314 0.4472135954999762
  outer loop
    vertex -42.13941784815496 56.01992801407023 48.795164002953506
    vertex -105.2757957102928 10.148664433009824 0.5632631693933429
    vertex -51.35089123635756 27.66992801406929 0.5632631693933429
  endloop
endfacet
facet normal 0.27639320225001757 -0.8506508083520314 0.4472135954999762
  outer loop
    vertex -105.2757957102928 10.148664433009824 0.5632631693933429
    vertex -42.13941784815496 56.01992801407023 48.795164002953506
    vertex -129.39174612707336 27.669928014070283 48.795164002953506
  endloop
endfacet
facet normal 0.13819660112501572 -0.4253254041760375 -0.8944271909999068
  outer loop
    vertex -51.57476973018007 28.35895516883443 0.20102015703836265
    vertex -105.2757957102928 10.148664433009824 0.5632631693933429
    vertex -105.49967420411531 10.837691587774964 0.20102015703836265
  endloop
endfacet
facet normal 0.13819660112501572 -0.4253254041760375 -0.8944271909999068
  outer loop
    vertex -105.2757957102928 10.148664433009824 0.5632631693933429
    vertex -51.57476973018007 28.35895516883443 0.20102015703836265
    vertex -51.35089123635756 27.66992801406929 0.5632631693933429
  endloop
endfacet
facet normal 0.9472135954999599 0.16245984811644715 -0.27639320225001807
  outer loop
    vertex -51.57476973018007 28.35895516883443 0.20102015703836265
    vertex -42.13941784815496 56.01992801407023 48.795164002953506
    vertex -51.35089123635756 27.66992801406929 0.5632631693933429
  endloop
endfacet
facet normal 0.9472135954999599 0.16245984811644715 -0.27639320225001807
  outer loop
    vertex -42.13941784815496 56.01992801407023 48.795164002953506
    vertex -51.57476973018007 28.35895516883443 0.20102015703836265
    vertex -42.36329634197749 56.70895516883536 48.43292099059852
  endloop
endfacet
facet normal 0.49112347318840505 -0.3568220897730797 0.7946544722917818
  outer loop
    vertex -3.3428688966178832 -63.38357199328578 78.2418750477531
    vertex -27.45881931340022 10.83769158777546 126.47377588131333
    vertex -81.3837237873359 -63.38357199328422 126.47377588131324
  endloop
endfacet
facet normal -0.6428889727401061 0.46708617948136866 0.6070619982066657
  outer loop
    vertex -27.45881931340022 10.83769158777546 126.47377588131333
    vertex -81.7815338006185 -63.094546100568024 125.8301057587569
    vertex -81.3837237873359 -63.38357199328422 126.47377588131324
  endloop
endfacet
facet normal -0.6428889727401061 0.46708617948136866 0.6070619982066657
  outer loop
    vertex -81.7815338006185 -63.094546100568024 125.8301057587569
    vertex -27.45881931340022 10.83769158777546 126.47377588131333
    vertex -27.856629326682842 11.126717480491653 125.83010575875697
  endloop
endfacet
facet normal 0.8304814468251797 0.46708617948135894 -0.3035309991033271
  outer loop
    vertex -3.7406789099004927 -63.09454610056959 77.59820492519675
    vertex -27.45881931340022 10.83769158777546 126.47377588131333
    vertex -3.3428688966178832 -63.38357199328578 78.2418750477531
  endloop
endfacet
facet normal 0.8304814468251797 0.46708617948135894 -0.3035309991033271
  outer loop
    vertex -27.45881931340022 10.83769158777546 126.47377588131333
    vertex -3.7406789099004927 -63.09454610056959 77.59820492519675
    vertex -27.856629326682842 11.126717480491653 125.83010575875697
  endloop
endfacet
facet normal -0.18759247408508223 -0.9341723589627197 -0.30353099910332965
  outer loop
    vertex -3.3428688966178832 -63.38357199328578 78.2418750477531
    vertex -81.7815338006185 -63.094546100568024 125.8301057587569
    vertex -3.7406789099004927 -63.09454610056959 77.59820492519675
  endloop
endfacet
facet normal -0.18759247408508223 -0.9341723589627197 -0.30353099910332965
  outer loop
    vertex -81.7815338006185 -63.094546100568024 125.8301057587569
    vertex -3.3428688966178832 -63.38357199328578 78.2418750477531
    vertex -81.3837237873359 -63.38357199328422 126.47377588131324
  endloop
endfacet
facet normal -0.49112347318840505 0.3568220897730797 -0.7946544722917818
  outer loop
    vertex -3.7406789099004927 -63.09454610056959 77.59820492519675
    vertex -81.7815338006185 -63.094546100568024 125.8301057587569
    vertex -27.856629326682842 11.126717480491653 125.83010575875697
  endloop
endfacet
facet normal -0.052786404500035695 0.6881909602355916 0.7236067977499748
  outer loop
    vertex -3.9289904027970657 27.933112968019298 78.60411806010805
    vertex -42.363296341977595 56.70895516883544 48.43292099059852
    vertex -42.94941784815507 56.28311296801893 48.79516400295349
  endloop
endfacet
facet normal -0.052786404500035695 0.6881909602355916 0.7236067977499748
  outer loop
    vertex -42.363296341977595 56.70895516883544 48.43292099059852
    vertex -3.9289904027970657 27.933112968019298 78.60411806010805
    vertex -3.3428688966195863 28.358955168835802 78.24187504775308
  endloop
endfacet
facet normal -0.6708203932499425 0.6881909602355762 -0.2763932022500339
  outer loop
    vertex -52.16089123635769 27.933112968018 0.5632631693933368
    vertex -42.363296341977595 56.70895516883544 48.43292099059852
    vertex -51.57476973018021 28.358955168834505 0.20102015703836265
  endloop
endfacet
facet normal -0.6708203932499425 0.6881909602355762 -0.2763932022500339
  outer loop
    vertex -42.363296341977595 56.70895516883544 48.43292099059852
    vertex -52.16089123635769 27.933112968018 0.5632631693933368
    vertex -42.94941784815507 56.28311296801893 48.79516400295349
  endloop
endfacet
facet normal -0.7236067977499746 -0.5257311121191308 0.44721359549996803
  outer loop
    vertex -3.9289904027970657 27.933112968019298 78.60411806010805
    vertex -52.16089123635769 27.933112968018 0.5632631693933368
    vertex 10.975486625781485 -17.938150613042417 48.79516400295343
  endloop
endfacet
facet normal -0.7236067977499746 -0.5257311121191308 0.44721359549996803
  outer loop
    vertex -52.16089123635769 27.933112968018 0.5632631693933368
    vertex -3.9289904027970657 27.933112968019298 78.60411806010805
    vertex -42.94941784815507 56.28311296801893 48.79516400295349
  endloop
endfacet
facet normal 0.052786404500027376 -0.6881909602355856 -0.7236067977499813
  outer loop
    vertex -51.57476973018021 28.358955168834505 0.20102015703836265
    vertex 10.975486625781485 -17.938150613042417 48.79516400295343
    vertex -52.16089123635769 27.933112968018 0.5632631693933368
  endloop
endfacet
facet normal 0.052786404500027376 -0.6881909602355856 -0.7236067977499813
  outer loop
    vertex 10.975486625781485 -17.938150613042417 48.79516400295343
    vertex -51.57476973018021 28.358955168834505 0.20102015703836265
    vertex 11.561608131958964 -17.512308412225916 48.432920990598454
  endloop
endfacet
facet normal 0.6381966011250104 -0.26286555605954093 0.7236067977499884
  outer loop
    vertex 10.975486625781485 -17.938150613042417 48.79516400295343
    vertex -3.3428688966195863 28.358955168835802 78.24187504775308
    vertex -3.9289904027970657 27.933112968019298 78.60411806010805
  endloop
endfacet
facet normal 0.6381966011250104 -0.26286555605954093 0.7236067977499884
  outer loop
    vertex -3.3428688966195863 28.358955168835802 78.24187504775308
    vertex 10.975486625781485 -17.938150613042417 48.79516400295343
    vertex 11.561608131958964 -17.512308412225916 48.432920990598454
  endloop
endfacet
facet normal 0.7236067977499746 0.5257311121191308 -0.44721359549996803
  outer loop
    vertex -51.57476973018021 28.358955168834505 0.20102015703836265
    vertex -3.3428688966195863 28.358955168835802 78.24187504775308
    vertex 11.561608131958964 -17.512308412225916 48.432920990598454
  endloop
endfacet
facet normal 0.7236067977499746 0.5257311121191308 -0.44721359549996803
  outer loop
    vertex -3.3428688966195863 28.358955168835802 78.24187504775308
    vertex -51.57476973018021 28.358955168834505 0.20102015703836265
    vertex -42.363296341977595 56.70895516883544 48.43292099059852
  endloop
endfacet
facet normal 0.8944271909999095 1.5568328565930718e-14 0.4472135954999707
  outer loop
    vertex -3.3428688966179085 -63.383571993285834 78.24187504775304
    vertex 0.9022655375613343 -35.829688981868486 69.75160617939385
    vertex -5.66992369294835 -46.43407375837458 82.89598464041309
  endloop
endfacet
facet normal 0.8944271909999095 1.5568328565930718e-14 0.4472135954999707
  outer loop
    vertex 0.9022655375613343 -35.829688981868486 69.75160617939385
    vertex -3.3428688966179085 -63.383571993285834 78.24187504775304
    vertex 4.999907190499233 -29.148202289481794 61.55632287351813
  endloop
endfacet
facet normal 0.8944271909999095 1.5568328565930718e-14 0.4472135954999707
  outer loop
    vertex 4.999907190499233 -29.148202289481794 61.55632287351813
    vertex -3.3428688966179085 -63.383571993285834 78.24187504775304
    vertex 11.56160813195905 -17.512308412225966 48.432920990598454
  endloop
endfacet
facet normal 0.8944271909999095 1.5568328565930718e-14 0.4472135954999707
  outer loop
    vertex -5.66992369294835 -46.43407375837458 82.89598464041309
    vertex 0.9022655375613343 -35.829688981868486 69.75160617939385
    vertex -1.5722820400104545 -39.752587065987875 74.70070133453737
  endloop
endfacet
facet normal 0.8944271909999095 1.5568328565930718e-14 0.4472135954999707
  outer loop
    vertex 4.999907190499233 -29.148202289481794 61.55632287351813
    vertex 11.56160813195905 -17.512308412225966 48.432920990598454
    vertex -10.809890095149468 19.331190744400544 93.17591744481271
  endloop
endfacet
facet normal 0.8944271909999095 1.5568328565930718e-14 0.4472135954999707
  outer loop
    vertex -10.809890095149468 19.331190744400544 93.17591744481271
    vertex 11.56160813195905 -17.512308412225966 48.432920990598454
    vertex -3.342868896619516 28.35895516883574 78.24187504775308
  endloop
endfacet
facet normal 0.8944271909999095 1.5568328565930718e-14 0.4472135954999707
  outer loop
    vertex 0.9022655375613343 -35.829688981868486 69.75160617939385
    vertex -17.34253942654868 8.93417611673273 106.24121610761098
    vertex -1.5722820400104545 -39.752587065987875 74.70070133453737
  endloop
endfacet
facet normal 0.8944271909999095 1.5568328565930718e-14 0.4472135954999707
  outer loop
    vertex -17.34253942654868 8.93417611673273 106.24121610761098
    vertex 0.9022655375613343 -35.829688981868486 69.75160617939385
    vertex -14.90753174808741 12.649704052013917 101.37120075068847
  endloop
endfacet
facet normal 0.8944271909999095 1.5568328565930718e-14 0.4472135954999707
  outer loop
    vertex -17.34253942654868 8.93417611673273 106.24121610761098
    vertex -14.90753174808741 12.649704052013917 101.37120075068847
    vertex -27.458819313400248 10.837691587775392 126.47377588131327
  endloop
endfacet
facet normal 0.8944271909999095 1.5568328565930718e-14 0.4472135954999707
  outer loop
    vertex -27.458819313400248 10.837691587775392 126.47377588131327
    vertex -14.90753174808741 12.649704052013917 101.37120075068847
    vertex -10.809890095149468 19.331190744400544 93.17591744481271
  endloop
endfacet
facet normal 0.8944271909999095 1.5568328565930718e-14 0.4472135954999707
  outer loop
    vertex -27.458819313400248 10.837691587775392 126.47377588131327
    vertex -10.809890095149468 19.331190744400544 93.17591744481271
    vertex -3.342868896619516 28.35895516883574 78.24187504775308
  endloop
endfacet
facet normal 0.8944271909999095 1.5568328565930718e-14 0.4472135954999707
  outer loop
    vertex -5.66992369294835 -46.43407375837458 82.89598464041309
    vertex -27.458819313400248 10.837691587775392 126.47377588131327
    vertex -3.3428688966179085 -63.383571993285834 78.24187504775304
  endloop
endfacet
facet normal 0.8944271909999095 1.5568328565930718e-14 0.4472135954999707
  outer loop
    vertex -27.458819313400248 10.837691587775392 126.47377588131327
    vertex -5.66992369294835 -46.43407375837458 82.89598464041309
    vertex -21.440181079486624 2.2526894243461233 114.4364994134868
  endloop
endfacet
facet normal 0.8944271909999095 1.5568328565930718e-14 0.4472135954999707
  outer loop
    vertex -27.458819313400248 10.837691587775392 126.47377588131327
    vertex -21.440181079486624 2.2526894243461233 114.4364994134868
    vertex -17.34253942654868 8.93417611673273 106.24121610761098
  endloop
endfacet
facet normal -0.8944271909999095 -1.5543888489689064e-14 -0.44721359549997086
  outer loop
    vertex -28.183305338110177 10.837691587775392 126.1115328689583
    vertex -6.39440971765828 -46.4340737583746 82.53374162805811
    vertex -4.067354921327836 -63.383571993285855 77.87963203539805
  endloop
endfacet
facet normal -0.8944271909999095 -1.5543888489689064e-14 -0.44721359549997086
  outer loop
    vertex -6.39440971765828 -46.4340737583746 82.53374162805811
    vertex -28.183305338110177 10.837691587775392 126.1115328689583
    vertex -22.164667104196553 2.252689424346078 114.0742564011318
  endloop
endfacet
facet normal -0.8944271909999095 -1.5543888489689064e-14 -0.44721359549997086
  outer loop
    vertex -22.164667104196553 2.252689424346078 114.0742564011318
    vertex -28.183305338110177 10.837691587775392 126.1115328689583
    vertex -18.06702545125861 8.934176116732708 105.87897309525604
  endloop
endfacet
facet normal -0.8944271909999095 -1.5543888489689064e-14 -0.44721359549997086
  outer loop
    vertex -18.06702545125861 8.934176116732708 105.87897309525604
    vertex 0.17777951285140714 -35.82968898186851 69.38936316703885
    vertex -2.2967680647203874 -39.752587065987896 74.33845832218238
  endloop
endfacet
facet normal -0.8944271909999095 -1.5543888489689064e-14 -0.44721359549997086
  outer loop
    vertex 0.17777951285140714 -35.82968898186851 69.38936316703885
    vertex -18.06702545125861 8.934176116732708 105.87897309525604
    vertex -15.632017772797337 12.649704052013893 101.00895773833352
  endloop
endfacet
facet normal -0.8944271909999095 -1.5543888489689064e-14 -0.44721359549997086
  outer loop
    vertex -15.632017772797337 12.649704052013893 101.00895773833352
    vertex -18.06702545125861 8.934176116732708 105.87897309525604
    vertex -28.183305338110177 10.837691587775392 126.1115328689583
  endloop
endfacet
facet normal -0.8944271909999095 -1.5543888489689064e-14 -0.44721359549997086
  outer loop
    vertex -15.632017772797337 12.649704052013893 101.00895773833352
    vertex -28.183305338110177 10.837691587775392 126.1115328689583
    vertex -11.534376119859395 19.331190744400544 92.81367443245772
  endloop
endfacet
facet normal -0.8944271909999095 -1.5543888489689064e-14 -0.44721359549997086
  outer loop
    vertex -11.534376119859395 19.331190744400544 92.81367443245772
    vertex -28.183305338110177 10.837691587775392 126.1115328689583
    vertex -4.067354921329443 28.35895516883574 77.87963203539813
  endloop
endfacet
facet normal -0.8944271909999095 -1.5543888489689064e-14 -0.44721359549997086
  outer loop
    vertex -4.067354921327836 -63.383571993285855 77.87963203539805
    vertex 4.2754211657893 -29.148202289481794 61.19407986116314
    vertex 10.837122107249115 -17.512308412225984 48.07067797824348
  endloop
endfacet
facet normal -0.8944271909999095 -1.5543888489689064e-14 -0.44721359549997086
  outer loop
    vertex 4.2754211657893 -29.148202289481794 61.19407986116314
    vertex -4.067354921327836 -63.383571993285855 77.87963203539805
    vertex 0.17777951285140714 -35.82968898186851 69.38936316703885
  endloop
endfacet
facet normal -0.8944271909999095 -1.5543888489689064e-14 -0.44721359549997086
  outer loop
    vertex 0.17777951285140714 -35.82968898186851 69.38936316703885
    vertex -4.067354921327836 -63.383571993285855 77.87963203539805
    vertex -6.39440971765828 -46.4340737583746 82.53374162805811
  endloop
endfacet
facet normal -0.8944271909999095 -1.5543888489689064e-14 -0.44721359549997086
  outer loop
    vertex 0.17777951285140714 -35.82968898186851 69.38936316703885
    vertex -6.39440971765828 -46.4340737583746 82.53374162805811
    vertex -2.2967680647203874 -39.752587065987896 74.33845832218238
  endloop
endfacet
facet normal -0.8944271909999095 -1.5543888489689064e-14 -0.44721359549997086
  outer loop
    vertex 10.837122107249115 -17.512308412225984 48.07067797824348
    vertex 4.2754211657893 -29.148202289481794 61.19407986116314
    vertex -11.534376119859395 19.331190744400544 92.81367443245772
  endloop
endfacet
facet normal -0.8944271909999095 -1.5543888489689064e-14 -0.44721359549997086
  outer loop
    vertex 10.837122107249115 -17.512308412225984 48.07067797824348
    vertex -11.534376119859395 19.331190744400544 92.81367443245772
    vertex -4.067354921329443 28.35895516883574 77.87963203539813
  endloop
endfacet
facet normal 0.36134406110559036 0.5891963573533362 -0.7226881222112891
  outer loop
    vertex -14.90753174808741 12.649704052013917 101.37120075068847
    vertex 0.17777951285140714 -35.82968898186851 69.38936316703885
    vertex -15.632017772797337 12.649704052013893 101.00895773833352
  endloop
endfacet
facet normal 0.36134406110559036 0.5891963573533362 -0.7226881222112891
  outer loop
    vertex 0.17777951285140714 -35.82968898186851 69.38936316703885
    vertex -14.90753174808741 12.649704052013917 101.37120075068847
    vertex 0.9022655375613343 -35.829688981868486 69.75160617939385
  endloop
endfacet
facet normal -0.2634966214274804 0.8079898838980386 0.5269932428549131
  outer loop
    vertex 0.17777951285140714 -35.82968898186851 69.38936316703885
    vertex 4.999907190499233 -29.148202289481794 61.55632287351813
    vertex 4.2754211657893 -29.148202289481794 61.19407986116314
  endloop
endfacet
facet normal -0.2634966214274804 0.8079898838980386 0.5269932428549131
  outer loop
    vertex 4.999907190499233 -29.148202289481794 61.55632287351813
    vertex 0.17777951285140714 -35.82968898186851 69.38936316703885
    vertex 0.9022655375613343 -35.829688981868486 69.75160617939385
  endloop
endfacet
facet normal -0.3613440611057786 -0.5891963573532901 0.7226881222112325
  outer loop
    vertex 4.2754211657893 -29.148202289481794 61.19407986116314
    vertex -10.809890095149468 19.331190744400544 93.17591744481271
    vertex -11.534376119859395 19.331190744400544 92.81367443245772
  endloop
endfacet
facet normal -0.3613440611057786 -0.5891963573532901 0.7226881222112325
  outer loop
    vertex -10.809890095149468 19.331190744400544 93.17591744481271
    vertex 4.2754211657893 -29.148202289481794 61.19407986116314
    vertex 4.999907190499233 -29.148202289481794 61.55632287351813
  endloop
endfacet
facet normal 0.263496621427476 -0.8079898838980438 -0.526993242854907
  outer loop
    vertex -10.809890095149468 19.331190744400544 93.17591744481271
    vertex -15.632017772797337 12.649704052013893 101.00895773833352
    vertex -11.534376119859395 19.331190744400544 92.81367443245772
  endloop
endfacet
facet normal 0.263496621427476 -0.8079898838980438 -0.526993242854907
  outer loop
    vertex -15.632017772797337 12.649704052013893 101.00895773833352
    vertex -10.809890095149468 19.331190744400544 93.17591744481271
    vertex -14.90753174808741 12.649704052013917 101.37120075068847
  endloop
endfacet
facet normal -0.2634966214274919 0.8079898838980386 0.5269932428549071
  outer loop
    vertex -6.39440971765828 -46.4340737583746 82.53374162805811
    vertex -1.5722820400104545 -39.752587065987875 74.70070133453737
    vertex -2.2967680647203874 -39.752587065987896 74.33845832218238
  endloop
endfacet
facet normal -0.2634966214274919 0.8079898838980386 0.5269932428549071
  outer loop
    vertex -1.5722820400104545 -39.752587065987875 74.70070133453737
    vertex -6.39440971765828 -46.4340737583746 82.53374162805811
    vertex -5.66992369294835 -46.43407375837458 82.89598464041309
  endloop
endfacet
facet normal -0.36219084981574945 -0.5865909490849106 0.724381699631768
  outer loop
    vertex -2.2967680647203874 -39.752587065987896 74.33845832218238
    vertex -17.34253942654868 8.93417611673273 106.24121610761098
    vertex -18.06702545125861 8.934176116732708 105.87897309525604
  endloop
endfacet
facet normal -0.36219084981574945 -0.5865909490849106 0.724381699631768
  outer loop
    vertex -17.34253942654868 8.93417611673273 106.24121610761098
    vertex -2.2967680647203874 -39.752587065987896 74.33845832218238
    vertex -1.5722820400104545 -39.752587065987875 74.70070133453737
  endloop
endfacet
facet normal 0.26349662142749425 -0.8079898838980453 -0.5269932428548958
  outer loop
    vertex -17.34253942654868 8.93417611673273 106.24121610761098
    vertex -22.164667104196553 2.252689424346078 114.0742564011318
    vertex -18.06702545125861 8.934176116732708 105.87897309525604
  endloop
endfacet
facet normal 0.26349662142749425 -0.8079898838980453 -0.5269932428548958
  outer loop
    vertex -22.164667104196553 2.252689424346078 114.0742564011318
    vertex -17.34253942654868 8.93417611673273 106.24121610761098
    vertex -21.440181079486624 2.2526894243461233 114.4364994134868
  endloop
endfacet
facet normal 0.3621908498159308 0.5865909490848826 -0.7243816996317002
  outer loop
    vertex -21.440181079486624 2.2526894243461233 114.4364994134868
    vertex -6.39440971765828 -46.4340737583746 82.53374162805811
    vertex -22.164667104196553 2.252689424346078 114.0742564011318
  endloop
endfacet
facet normal 0.3621908498159308 0.5865909490848826 -0.7243816996317002
  outer loop
    vertex -6.39440971765828 -46.4340737583746 82.53374162805811
    vertex -21.440181079486624 2.2526894243461233 114.4364994134868
    vertex -5.66992369294835 -46.43407375837458 82.89598464041309
  endloop
endfacet
facet normal 0.3618033988749966 0.587785252292458 -0.7236067977499877
  outer loop
    vertex -3.342868896619516 28.35895516883574 78.24187504775308
    vertex 10.837122107249115 -17.512308412225984 48.07067797824348
    vertex -4.067354921329443 28.35895516883574 77.87963203539813
  endloop
endfacet
facet normal 0.3618033988749966 0.587785252292458 -0.7236067977499877
  outer loop
    vertex 10.837122107249115 -17.512308412225984 48.07067797824348
    vertex -3.342868896619516 28.35895516883574 78.24187504775308
    vertex 11.56160813195905 -17.512308412225966 48.432920990598454
  endloop
endfacet
facet normal 0.3618033988750109 -0.5877852522924646 -0.7236067977499753
  outer loop
    vertex 10.837122107249115 -17.512308412225984 48.07067797824348
    vertex -3.3428688966179085 -63.383571993285834 78.24187504775304
    vertex -4.067354921327836 -63.383571993285855 77.87963203539805
  endloop
endfacet
facet normal 0.3618033988750109 -0.5877852522924646 -0.7236067977499753
  outer loop
    vertex -3.3428688966179085 -63.383571993285834 78.24187504775304
    vertex 10.837122107249115 -17.512308412225984 48.07067797824348
    vertex 11.56160813195905 -17.512308412225966 48.432920990598454
  endloop
endfacet
facet normal -0.36180339887499335 -0.587785252292468 0.7236067977499813
  outer loop
    vertex -4.067354921327836 -63.383571993285855 77.87963203539805
    vertex -27.458819313400248 10.837691587775392 126.47377588131327
    vertex -28.183305338110177 10.837691587775392 126.1115328689583
  endloop
endfacet
facet normal -0.36180339887499335 -0.587785252292468 0.7236067977499813
  outer loop
    vertex -27.458819313400248 10.837691587775392 126.47377588131327
    vertex -4.067354921327836 -63.383571993285855 77.87963203539805
    vertex -3.3428688966179085 -63.383571993285834 78.24187504775304
  endloop
endfacet
facet normal -0.13819660112503418 0.951056516295149 0.2763932022500253
  outer loop
    vertex -28.183305338110177 10.837691587775392 126.1115328689583
    vertex -3.342868896619516 28.35895516883574 78.24187504775308
    vertex -4.067354921329443 28.35895516883574 77.87963203539813
  endloop
endfacet
facet normal -0.13819660112503418 0.951056516295149 0.2763932022500253
  outer loop
    vertex -3.342868896619516 28.35895516883574 78.24187504775308
    vertex -28.183305338110177 10.837691587775392 126.1115328689583
    vertex -27.458819313400248 10.837691587775392 126.47377588131327
  endloop
endfacet
facet normal 0.2763932022500173 0.8506508083520368 0.447213595499966
  outer loop
    vertex -81.60760228115787 27.669928014070056 126.1115328689583
    vertex -3.5667473904420315 27.669928014070603 77.87963203539812
    vertex -42.587174835800035 56.01992801407027 48.070677978243545
  endloop
endfacet
facet normal 0.2763932022500173 0.8506508083520368 0.447213595499966
  outer loop
    vertex -3.5667473904420315 27.669928014070603 77.87963203539812
    vertex -81.60760228115787 27.669928014070056 126.1115328689583
    vertex -27.682697807222766 10.148664433010259 126.1115328689583
  endloop
endfacet
facet normal 0.8618033988749885 -0.42532540417602094 0.2763932022500228
  outer loop
    vertex -3.5667473904420315 27.669928014070603 77.87963203539812
    vertex -27.458819313400245 10.837691587775398 126.47377588131327
    vertex -27.682697807222766 10.148664433010259 126.1115328689583
  endloop
endfacet
facet normal 0.8618033988749885 -0.42532540417602094 0.2763932022500228
  outer loop
    vertex -27.458819313400245 10.837691587775398 126.47377588131327
    vertex -3.5667473904420315 27.669928014070603 77.87963203539812
    vertex -3.342868896619519 28.35895516883574 78.24187504775308
  endloop
endfacet
facet normal -0.13819660112501522 -0.4253254041760268 0.8944271909999119
  outer loop
    vertex -27.682697807222766 10.148664433010259 126.1115328689583
    vertex -81.38372378733536 28.358955168835195 126.47377588131327
    vertex -81.60760228115787 27.669928014070056 126.1115328689583
  endloop
endfacet
facet normal -0.13819660112501522 -0.4253254041760268 0.8944271909999119
  outer loop
    vertex -81.38372378733536 28.358955168835195 126.47377588131327
    vertex -27.682697807222766 10.148664433010259 126.1115328689583
    vertex -27.458819313400245 10.837691587775398 126.47377588131327
  endloop
endfacet
facet normal -0.8618033988749886 0.4253254041760208 -0.2763932022500225
  outer loop
    vertex -81.38372378733536 28.358955168835195 126.47377588131327
    vertex -42.587174835800035 56.01992801407027 48.070677978243545
    vertex -81.60760228115787 27.669928014070056 126.1115328689583
  endloop
endfacet
facet normal -0.8618033988749886 0.4253254041760208 -0.2763932022500225
  outer loop
    vertex -42.587174835800035 56.01992801407027 48.070677978243545
    vertex -81.38372378733536 28.358955168835195 126.47377588131327
    vertex -42.36329634197752 56.70895516883544 48.43292099059852
  endloop
endfacet
facet normal 0.670820393249934 0.16245984811646452 -0.723606797749979
  outer loop
    vertex -42.36329634197752 56.70895516883544 48.43292099059852
    vertex -3.5667473904420315 27.669928014070603 77.87963203539812
    vertex -42.587174835800035 56.01992801407027 48.070677978243545
  endloop
endfacet
facet normal 0.670820393249934 0.16245984811646452 -0.723606797749979
  outer loop
    vertex -3.5667473904420315 27.669928014070603 77.87963203539812
    vertex -42.36329634197752 56.70895516883544 48.43292099059852
    vertex -3.342868896619519 28.35895516883574 78.24187504775308
  endloop
endfacet
facet normal 0.2763932022500173 0.8506508083520368 0.447213595499966
  outer loop
    vertex -81.38372378733536 28.358955168835195 126.47377588131327
    vertex -3.342868896619519 28.35895516883574 78.24187504775308
    vertex -42.36329634197752 56.70895516883544 48.43292099059852
  endloop
endfacet
facet normal 0.2763932022500173 0.8506508083520368 0.447213595499966
  outer loop
    vertex -3.342868896619519 28.35895516883574 78.24187504775308
    vertex -81.38372378733536 28.358955168835195 126.47377588131327
    vertex -27.458819313400245 10.837691587775398 126.47377588131327
  endloop
endfacet
facet normal -0.3035309991033424 0.9341723589627151 0.18759247408508425
  outer loop
    vertex -81.13786367806158 27.602275558075508 126.32182597730434
    vertex -42.11743623270377 55.95227555807572 48.28097108658961
    vertex -129.36976451162215 27.60227555807576 48.28097108658961
  endloop
endfacet
facet normal -0.05796926250913288 0.17841104488654905 -0.9822469463768452
  outer loop
    vertex -42.36329634197749 56.70895516883553 48.432920990598525
    vertex -129.36976451162215 27.60227555807576 48.28097108658961
    vertex -129.6156246208959 28.35895516883558 48.432920990598525
  endloop
endfacet
facet normal -0.05796926250913288 0.17841104488654905 -0.9822469463768452
  outer loop
    vertex -129.36976451162215 27.60227555807576 48.28097108658961
    vertex -42.36329634197749 56.70895516883553 48.432920990598525
    vertex -42.11743623270377 55.95227555807572 48.28097108658961
  endloop
endfacet
facet normal 0.8526237348008965 0.17841104488654094 0.49112347318842686
  outer loop
    vertex -42.11743623270377 55.95227555807572 48.28097108658961
    vertex -81.38372378733528 28.35895516883532 126.47377588131327
    vertex -81.13786367806158 27.602275558075508 126.32182597730434
  endloop
endfacet
facet normal 0.8526237348008965 0.17841104488654094 0.49112347318842686
  outer loop
    vertex -81.38372378733528 28.35895516883532 126.47377588131327
    vertex -42.11743623270377 55.95227555807572 48.28097108658961
    vertex -42.36329634197749 56.70895516883553 48.432920990598525
  endloop
endfacet
facet normal -0.7946544722917642 -0.35682208977309154 0.491123473188425
  outer loop
    vertex -81.38372378733528 28.35895516883532 126.47377588131327
    vertex -129.36976451162215 27.60227555807576 48.28097108658961
    vertex -81.13786367806158 27.602275558075508 126.32182597730434
  endloop
endfacet
facet normal -0.7946544722917642 -0.35682208977309154 0.491123473188425
  outer loop
    vertex -129.36976451162215 27.60227555807576 48.28097108658961
    vertex -81.38372378733528 28.35895516883532 126.47377588131327
    vertex -129.6156246208959 28.35895516883558 48.432920990598525
  endloop
endfacet
facet normal -0.3035309991033424 0.9341723589627151 0.18759247408508425
  outer loop
    vertex -81.38372378733528 28.35895516883532 126.47377588131327
    vertex -42.36329634197749 56.70895516883553 48.432920990598525
    vertex -129.6156246208959 28.35895516883558 48.432920990598525
  endloop
endfacet
facet normal -0.8090169943749466 0.5877852522924742 -3.291803863072226e-30
  outer loop
    vertex -81.3837237873353 28.35895516883529 126.47377588131322
    vertex -114.71114759231885 -17.512308412224527 125.66377588131314
    vertex -114.71114759231885 -17.512308412224527 126.47377588131313
  endloop
endfacet
facet normal -0.8090169943749466 0.5877852522924742 -3.291803863072226e-30
  outer loop
    vertex -114.71114759231885 -17.512308412224527 125.66377588131314
    vertex -81.3837237873353 28.35895516883529 126.47377588131322
    vertex -81.3837237873353 28.35895516883529 125.66377588131321
  endloop
endfacet
facet normal 0.3090169943749525 0.9510565162951521 8.871659160945362e-16
  outer loop
    vertex -81.3837237873353 28.35895516883529 126.47377588131322
    vertex -27.45881931340021 10.837691587775494 125.66377588131321
    vertex -81.3837237873353 28.35895516883529 125.66377588131321
  endloop
endfacet
facet normal 0.3090169943749525 0.9510565162951521 8.871659160945362e-16
  outer loop
    vertex -27.45881931340021 10.837691587775494 125.66377588131321
    vertex -81.3837237873353 28.35895516883529 126.47377588131322
    vertex -27.45881931340021 10.837691587775494 126.47377588131322
  endloop
endfacet
facet normal -0.8090169943749507 -0.5877852522924688 -8.871659160945362e-16
  outer loop
    vertex -114.71114759231885 -17.512308412224527 126.47377588131313
    vertex -81.3837237873359 -63.3835719932842 125.66377588131314
    vertex -81.3837237873359 -63.3835719932842 126.47377588131313
  endloop
endfacet
facet normal -0.8090169943749507 -0.5877852522924688 -8.871659160945362e-16
  outer loop
    vertex -81.3837237873359 -63.3835719932842 125.66377588131314
    vertex -114.71114759231885 -17.512308412224527 126.47377588131313
    vertex -114.71114759231885 -17.512308412224527 125.66377588131314
  endloop
endfacet
facet normal 5.482986898068646e-16 7.546684036681924e-16 -1.0
  outer loop
    vertex -81.3837237873353 28.35895516883529 125.66377588131321
    vertex -81.3837237873359 -63.3835719932842 125.66377588131314
    vertex -114.71114759231885 -17.512308412224527 125.66377588131314
  endloop
endfacet
facet normal 5.482986898068646e-16 7.546684036681924e-16 -1.0
  outer loop
    vertex -81.3837237873359 -63.3835719932842 125.66377588131314
    vertex -81.3837237873353 28.35895516883529 125.66377588131321
    vertex -27.45881931340021 10.837691587775494 125.66377588131321
  endloop
endfacet
facet normal 0.8090169943749456 -0.5877852522924756 1.857538265444077e-30
  outer loop
    vertex -27.45881931340021 10.837691587775494 125.66377588131321
    vertex -81.3837237873359 -63.3835719932842 126.47377588131313
    vertex -81.3837237873359 -63.3835719932842 125.66377588131314
  endloop
endfacet
facet normal 0.8090169943749456 -0.5877852522924756 1.857538265444077e-30
  outer loop
    vertex -81.3837237873359 -63.3835719932842 126.47377588131313
    vertex -27.45881931340021 10.837691587775494 125.66377588131321
    vertex -27.45881931340021 10.837691587775494 126.47377588131322
  endloop
endfacet
facet normal -5.482986898068646e-16 -7.546684036681924e-16 1.0
  outer loop
    vertex -81.3837237873359 -63.3835719932842 126.47377588131313
    vertex -81.3837237873353 28.35895516883529 126.47377588131322
    vertex -114.71114759231885 -17.512308412224527 126.47377588131313
  endloop
endfacet
facet normal -5.482986898068646e-16 -7.546684036681924e-16 1.0
  outer loop
    vertex -81.3837237873353 28.35895516883529 126.47377588131322
    vertex -81.3837237873359 -63.3835719932842 126.47377588131313
    vertex -27.45881931340021 10.837691587775494 126.47377588131322
  endloop
endfacet
endsolid Dodecahedron_Thick_Scaled
